<?xml version="1.0" encoding="UTF-8"?>
<svg id="_レイヤー_2" data-name="レイヤー 2" xmlns="http://www.w3.org/2000/svg" viewBox="0 0 22.35 25.17">
  <defs>
    <style>
      .cls-1 {
        fill: #283130;
        stroke-width: 0px;
      }
    </style>
  </defs>
  <g id="_レイヤー_1-2" data-name="レイヤー 1">
    <g>
      <path class="cls-1" d="M1.68,9.78c-.14.12-.28.24-.42.36C.17,11.16.06,11.11.05,10.88c.02-.29.15-1.03,1.1-2.29.13-.16.26-.31.39-.46l-.16-1.89c.02-.16-.16-.93,1.35-2.69,1.59-1.56,1.85-.72,1.85-.4.07.83.14,1.66.21,2.49.24-.12.48-.24.72-.35.84-.37,1.45-.1,1.49.61.04.64-.26,1.3-1.29,1.64-.25.09-.49.18-.74.28.1,1.21.21,2.42.31,3.63.29-.11.54-.2.89-.26,1.21-.23,1.5.62,1.51.94.05.78-.58.97-3.06,1.86-.87.32-2.42.82-3.16.91C.37,15.03,0,14.72,0,14.46c0-.42.75-.85,1.96-1.44-.09-1.08-.18-2.15-.28-3.23ZM6.97,4.37c-.03-.71.06-2.11,2.95-2.57-.24-.28-.49-.52-.5-.78-.02-.58,1.35-1.08,2.37-1,1.41.11,1.66.54,2.59,2.13.93.24,1.83.58,2.68,1.04.18-.1.99-.42,1.18-.43.18-.02.5-.07,1.29.73.44.37,1.58,2.09,1.51,2.61-.01.14-.07.2-.38.11,1.68,2.49,1.6,3.6,1.67,3.96v1.29c0,.71-.68.15-2.37-.81-2.74-1.57-6.19-2.29-9.58-2.16-2.14.09-3.18-.07-3.27-1.52-.05-.86-.1-1.72-.15-2.58ZM21.83,14.84c-.01.78-1.06,1.03-2.89,1.05h-7.87c-1.84,0-2.87-.45-2.95-1.94-.05-.94-.1-1.89-.14-2.83-.08-1.46,1-2.15,3.09-2.18,2.95-.02,5.9.57,8.38,1.77,1.69.86,2.46,1.82,2.45,2.59-.02.51-.04,1.03-.05,1.54ZM13.83,4.56c.01-.28.02-.55.03-.83-.88-.17-1.78-.26-2.67-.26-.35,0-.53.13-.52.33,0,.17,0,.35,0,.52,1.06-.04,2.12.04,3.16.23ZM13.77,6.07c-1.02-.17-2.06-.23-3.09-.2,0,.18,0,.36,0,.54,0,.2.17.31.5.31.86,0,1.71.06,2.55.19l.03-.84ZM18.64,12.51c.02-.17.03-.35.05-.52.01-.15-.09-.28-.4-.37-1.93-.58-4.03-.91-6.15-.99-.34-.01-.5.11-.5.29,0,.22,0,.44,0,.66,2.41.03,4.81.34,7.01.93ZM18.52,13.75c-2.22-.37-4.56-.57-6.91-.59,0,.23,0,.45,0,.68,0,.22.17.32.47.33,2,.03,4,.13,5.94.33.29.03.44-.04.45-.21.02-.18.03-.35.05-.53ZM17.18,5.63c1,.47,1.94,1.08,2.78,1.81.01-.13.02-.26.04-.38.01-.15-.1-.36-.39-.61-.72-.62-1.52-1.14-2.36-1.57-.02.25-.04.5-.06.75ZM17.07,7c-.02.26-.04.51-.06.77.83.31,1.62.7,2.36,1.16.32.2.43.18.44.04.01-.13.03-.26.04-.4-.85-.63-1.79-1.16-2.78-1.57Z"/>
      <path class="cls-1" d="M9.05,12.35c.01-.31.04-1.01,1.89-1.01,1.82,0,2.11.41,2.14,1.01.14,3.44.27,6.89.41,10.33,1.75-.32,3.43-1,4.87-2.04.5-.36.74-.72.72-.94-.22-1.94-.44-3.88-.66-5.82-.04-.26-.08-.82,1.71-1.15,1.74-.36,1.95-.29,1.96-.03v3.39c-.04.56-.48,2.89-2.21,5.04-4.46,5.38-13.16,5.38-17.62,0C.47,18.89.09,16.63.04,16.09v-3.39c0-.14-.03-.39,1.69-.02,1.79.36,2.03.72,1.97,1.21-.22,1.94-.44,3.88-.66,5.82-.02.17.12.5.72.94,1.45,1.03,3.12,1.71,4.87,2.04.14-3.44.27-6.89.41-10.33Z"/>
    </g>
  </g>
</svg>