<?xml version="1.0" encoding="UTF-8"?>
<svg id="_レイヤー_2" data-name="レイヤー_2" xmlns="http://www.w3.org/2000/svg" viewBox="0 0 61.77 37.56">
  <g id="_レイヤー_1-2" data-name="レイヤー_1">
    <g>
      <path d="M5.23,0c2.5,0,3.38,1.01,3.38,4.68s-.76,4.77-3.3,4.77H.11V0h5.12ZM1.95,1.8v5.85h3.13c1.49,0,1.67-.52,1.67-3.07,0-2.28-.33-2.78-1.68-2.78H1.95Z"/>
      <path d="M16.39,5.78c0,2.88-.42,3.77-3.2,3.77-2.49,0-3.56-.19-3.56-3.44s.49-3.81,3.38-3.81c2.43,0,3.38.34,3.38,3.49ZM13.1,7.87c1.48,0,1.58-.2,1.58-2.06s-.28-1.83-1.76-1.83-1.59.25-1.59,1.98.12,1.92,1.77,1.92Z"/>
      <path d="M19.05,2.39l.03.79c.46-.71,1.26-.89,2.32-.89,1.83,0,2.55.55,2.55,2.27v4.89h-1.7v-4.51c0-.62-.28-.98-1.35-.98-1.63,0-1.79.56-1.79,1.37v4.13h-1.7V2.39h1.62Z"/>
      <path d="M27.26,0v2.18c0,1.36-1.37,1.4-1.9,1.42v-.96c.77,0,.83-.28.83-.61h-.83V0h1.9Z"/>
      <path d="M29.96.68h1.65v1.7h1.94v1.69h-1.94v2.96c0,.66.15.8,1.12.8.58,0,.7-.01.89-.02v1.69c-.37.05-.73.05-.89.05-2.2,0-2.78-.41-2.78-1.93v-3.55h-1.35v-1.69h1.35V.68Z"/>
      <path d="M5.75,17.03c0-1.07-.17-1.39-1.91-1.39-1.16,0-2.01,0-2.01,1.1,0,.48.17.82.95.9l2.77.28c2.34.23,2.37,2.05,2.37,2.67,0,2.69-1.77,2.95-3.85,2.95-3.27,0-4.05-.64-4.08-3.36h1.85c0,1.19,0,1.58,2.07,1.58,1.42,0,2.19,0,2.19-1.15,0-.68-.31-.96-.89-1.02l-3.21-.34c-1.62-.17-1.95-1.45-1.95-2.54,0-2.65,1.94-2.82,3.67-2.82,3.49,0,3.84,1.04,3.86,3.13h-1.84Z"/>
      <path d="M10.18,14.68h1.72v1.7h2.02v1.69h-2.02v2.96c0,.66.16.8,1.17.8.61,0,.73-.01.92-.02v1.69c-.38.05-.76.05-.92.05-2.29,0-2.89-.41-2.89-1.93v-3.55h-1.4v-1.69h1.4v-1.7Z"/>
      <path d="M21.39,19.78c0,2.88-.42,3.77-3.2,3.77-2.49,0-3.56-.19-3.56-3.44s.49-3.81,3.38-3.81c2.43,0,3.38.34,3.38,3.49ZM18.1,21.87c1.48,0,1.58-.2,1.58-2.06s-.28-1.83-1.76-1.83-1.59.25-1.59,1.98.12,1.92,1.77,1.92Z"/>
      <path d="M24.07,16.39l.03.71c.33-.41.67-.8,2.21-.8,2.55,0,2.76,1.44,2.76,3.8,0,2.51-.62,3.45-2.92,3.45-.83,0-1.49-.08-2.03-.72v2.23h-1.7v-8.67h1.64ZM24.11,20.1c0,1.66.43,1.82,1.66,1.82,1.53,0,1.61-.46,1.61-2.08,0-1.79-.4-1.92-1.65-1.92-1.44,0-1.62.36-1.62,2.17Z"/>
      <path d="M7.34,28v1.8H2.03v1.99h5.09v1.73H2.03v2.13h5.42v1.8H.19v-9.45h7.15Z"/>
      <path d="M9.99,30.39l1.77,5.36,1.76-5.36h1.92l-2.62,7.06h-2.15l-2.62-7.06h1.92Z"/>
      <path d="M22.84,33.78c0,2.88-.42,3.77-3.2,3.77-2.49,0-3.56-.19-3.56-3.44s.49-3.81,3.38-3.81c2.43,0,3.38.34,3.38,3.49ZM19.55,35.87c1.48,0,1.58-.2,1.58-2.06s-.28-1.83-1.76-1.83-1.59.25-1.59,1.98.12,1.92,1.77,1.92Z"/>
      <path d="M25.92,28v9.45h-1.72v-9.45h1.72Z"/>
      <path d="M32.33,37.45l-.02-.77c-.42.64-1.06.86-2.3.86-1.58,0-2.58-.48-2.58-2.3v-4.86h1.7v4.5c0,.65.29,1,1.47,1,1.37,0,1.66-.42,1.66-1.35v-4.14h1.7v7.06h-1.62Z"/>
      <path d="M36.16,28.68h1.72v1.7h2.02v1.69h-2.02v2.96c0,.66.16.8,1.17.8.61,0,.73-.01.92-.02v1.69c-.38.05-.76.05-.92.05-2.29,0-2.89-.41-2.89-1.93v-3.55h-1.4v-1.69h1.4v-1.7Z"/>
      <path d="M42.79,28v1.65h-1.77v-1.65h1.77ZM42.77,30.39v7.06h-1.72v-7.06h1.72Z"/>
      <path d="M50.91,33.78c0,2.88-.42,3.77-3.2,3.77-2.49,0-3.56-.19-3.56-3.44s.49-3.81,3.38-3.81c2.43,0,3.38.34,3.38,3.49ZM47.62,35.87c1.48,0,1.58-.2,1.58-2.06s-.28-1.83-1.76-1.83-1.59.25-1.59,1.98.12,1.92,1.77,1.92Z"/>
      <path d="M53.57,30.39l.03.79c.46-.71,1.26-.89,2.32-.89,1.83,0,2.55.55,2.55,2.27v4.89h-1.7v-4.51c0-.62-.28-.98-1.35-.98-1.63,0-1.79.56-1.79,1.37v4.13h-1.7v-7.06h1.62Z"/>
      <path d="M61.77,35.42v2.03h-1.9v-2.03h1.9Z"/>
    </g>
  </g>
</svg>