<?xml version="1.0" encoding="UTF-8"?>
<svg id="_レイヤー_2" data-name="レイヤー 2" xmlns="http://www.w3.org/2000/svg" viewBox="0 0 142.65 16.83">
  <defs>
    <style>
      .cls-1 {
        fill: #283130;
        stroke-width: 0px;
      }
    </style>
  </defs>
  <g id="_レイヤー_1-2" data-name="レイヤー 1">
    <g>
      <path class="cls-1" d="M5.47.15c2.67,0,3.61,1.52,3.61,7.06s-.82,7.2-3.53,7.2H0V.15h5.47ZM1.97,2.86v8.83h3.35c1.6,0,1.79-.78,1.79-4.63,0-3.44-.35-4.2-1.8-4.2H1.97Z"/>
      <path class="cls-1" d="M17.4,8.87c0,4.34-.44,5.68-3.42,5.68-2.66,0-3.8-.29-3.8-5.19s.53-5.75,3.61-5.75c2.59,0,3.61.51,3.61,5.27ZM13.88,12.02c1.58,0,1.69-.31,1.69-3.11s-.3-2.77-1.88-2.77-1.7.38-1.7,2.99.13,2.9,1.89,2.9Z"/>
      <path class="cls-1" d="M20.24,3.75l.04,1.19c.49-1.07,1.34-1.34,2.48-1.34,1.96,0,2.72.83,2.72,3.42v7.38h-1.81v-6.8c0-.94-.3-1.48-1.44-1.48-1.74,0-1.91.85-1.91,2.06v6.23h-1.81V3.75h1.73Z"/>
      <path class="cls-1" d="M29.01.15v3.29c0,2.04-1.46,2.12-2.03,2.14v-1.45c.83,0,.89-.42.89-.92h-.89V.15h2.03Z"/>
      <path class="cls-1" d="M31.52,1.18h1.83v2.57h2.16v2.55h-2.16v4.47c0,1,.17,1.21,1.25,1.21.65,0,.78-.02.98-.04v2.55c-.41.07-.82.07-.98.07-2.45,0-3.08-.62-3.08-2.91v-5.36h-1.5v-2.55h1.5V1.18Z"/>
      <path class="cls-1" d="M46.56,4.72c0-1.61-.18-2.1-2.04-2.1-1.24,0-2.15,0-2.15,1.67,0,.72.18,1.23,1.02,1.36l2.96.42c2.49.34,2.53,3.09,2.53,4.04,0,4.05-1.89,4.45-4.11,4.45-3.49,0-4.33-.96-4.35-5.07h1.98c0,1.79,0,2.39,2.21,2.39,1.51,0,2.34,0,2.34-1.74,0-1.03-.34-1.45-.95-1.54l-3.43-.51c-1.73-.25-2.09-2.19-2.09-3.84,0-4,2.08-4.25,3.92-4.25,3.73,0,4.1,1.57,4.13,4.72h-1.97Z"/>
      <path class="cls-1" d="M51.3,1.18h1.83v2.57h2.16v2.55h-2.16v4.47c0,1,.17,1.21,1.25,1.21.65,0,.78-.02.98-.04v2.55c-.41.07-.82.07-.98.07-2.45,0-3.08-.62-3.08-2.91v-5.36h-1.5v-2.55h1.5V1.18Z"/>
      <path class="cls-1" d="M63.27,8.87c0,4.34-.44,5.68-3.42,5.68-2.66,0-3.8-.29-3.8-5.19s.53-5.75,3.61-5.75c2.59,0,3.61.51,3.61,5.27ZM59.76,12.02c1.58,0,1.69-.31,1.69-3.11s-.3-2.77-1.88-2.77-1.7.38-1.7,2.99.13,2.9,1.89,2.9Z"/>
      <path class="cls-1" d="M66.14,3.75l.04,1.07c.35-.62.72-1.21,2.36-1.21,2.72,0,2.95,2.17,2.95,5.74,0,3.78-.66,5.21-3.12,5.21-.89,0-1.6-.13-2.17-1.09v3.37h-1.81V3.75h1.75ZM66.18,9.36c0,2.5.46,2.75,1.77,2.75,1.63,0,1.72-.69,1.72-3.13,0-2.7-.43-2.9-1.76-2.9-1.54,0-1.73.54-1.73,3.28Z"/>
      <path class="cls-1" d="M84.47.15v2.71h-5.67v3h5.43v2.61h-5.43v3.22h5.79v2.71h-7.76V.15h7.64Z"/>
      <path class="cls-1" d="M87.31,3.75l1.9,8.09,1.88-8.09h2.05l-2.79,10.66h-2.29l-2.79-10.66h2.05Z"/>
      <path class="cls-1" d="M101.04,8.87c0,4.34-.44,5.68-3.42,5.68-2.66,0-3.8-.29-3.8-5.19s.53-5.75,3.61-5.75c2.59,0,3.61.51,3.61,5.27ZM97.52,12.02c1.58,0,1.69-.31,1.69-3.11s-.3-2.77-1.88-2.77-1.7.38-1.7,2.99.13,2.9,1.89,2.9Z"/>
      <path class="cls-1" d="M104.34.15v14.26h-1.83V.15h1.83Z"/>
      <path class="cls-1" d="M111.18,14.41l-.02-1.16c-.44.96-1.13,1.3-2.46,1.3-1.69,0-2.76-.72-2.76-3.47V3.75h1.81v6.79c0,.98.31,1.5,1.57,1.5,1.46,0,1.77-.63,1.77-2.04V3.75h1.81v10.66h-1.73Z"/>
      <path class="cls-1" d="M115.28,1.18h1.83v2.57h2.16v2.55h-2.16v4.47c0,1,.17,1.21,1.25,1.21.65,0,.78-.02.98-.04v2.55c-.41.07-.82.07-.98.07-2.45,0-3.08-.62-3.08-2.91v-5.36h-1.5v-2.55h1.5V1.18Z"/>
      <path class="cls-1" d="M122.36.15v2.5h-1.9V.15h1.9ZM122.34,3.75v10.66h-1.83V3.75h1.83Z"/>
      <path class="cls-1" d="M131.03,8.87c0,4.34-.44,5.68-3.42,5.68-2.66,0-3.8-.29-3.8-5.19s.53-5.75,3.61-5.75c2.59,0,3.61.51,3.61,5.27ZM127.52,12.02c1.58,0,1.69-.31,1.69-3.11s-.3-2.77-1.88-2.77-1.7.38-1.7,2.99.13,2.9,1.89,2.9Z"/>
      <path class="cls-1" d="M133.88,3.75l.04,1.19c.49-1.07,1.34-1.34,2.48-1.34,1.96,0,2.72.83,2.72,3.42v7.38h-1.81v-6.8c0-.94-.3-1.48-1.44-1.48-1.74,0-1.91.85-1.91,2.06v6.23h-1.81V3.75h1.73Z"/>
      <path class="cls-1" d="M142.65,11.35v3.06h-2.03v-3.06h2.03Z"/>
    </g>
  </g>
</svg>